<svg xmlns="http://www.w3.org/2000/svg" id="Layer_1" data-name="Layer 1" viewBox="0 0 595.27 595.28"><path class="cls-1" fill="#231f20" d="M153.55,570.79c0,8.15-7,14.41-16.51,14.41H126.75v-.29c.61-.37.9-1,.9-2.43V559.14c0-1.45-.29-2.06-.9-2.43v-.33H137C146.6,556.38,153.55,562.68,153.55,570.79Zm-3.25,0c0-7.58-5-14.08-13.26-14.08h-6.13v28.2H137C145.28,584.91,150.3,578.41,150.3,570.79Z"/><path class="cls-1" fill="#231f20" d="M184.85,584.91v.29H178.5v-.29c1.08-1.07.21-2.55-1.4-5.39l-4.4-7.7c-.62,0-1.24.08-1.85.08H167v10.58c0,1.45.28,2.06.9,2.43v.29h-5.06v-.29c.61-.37.9-1,.9-2.43V559.14c0-1.49-.29-2.06-.9-2.43v-.33h8c6.38,0,12.14,2.38,12.14,7.78,0,3.87-3.09,6.22-7.2,7.16l3.7,6.51C181.92,582.07,183.24,583.47,184.85,584.91Zm-5.11-20.75c0-3.21-1.07-7.45-8.89-7.45H167v14.86h3.83C178.63,571.57,179.74,567.33,179.74,564.16Z"/><path class="cls-1" fill="#231f20" d="M197.48,559.14v23.34c0,1.45.29,2.06,1,2.43v.29h-5.1v-.29c.61-.37.9-1,.9-2.43V559.14c0-1.45-.29-2.06-.9-2.43v-.33h5.1v.33C197.77,557.08,197.48,557.69,197.48,559.14Z"/><path class="cls-1" fill="#231f20" d="M227.34,564.28l-6.18,17.38,1.36,3.54h-3.25l-8.08-20.92a27.64,27.64,0,0,0-4.28-7.57v-.33h6.3v.33c-1,1.07-.7,2.51.46,5.51l7.33,19,6-17c1.32-3.7,1.52-5.72-.25-7.57v-.33h4.9v.33C229.89,558.56,228.7,560.45,227.34,564.28Z"/><path class="cls-1" fill="#231f20" d="M257.76,580.22l-.9,5H240.14v-.29c.62-.37.91-1,.91-2.43V559.14c0-1.45-.29-2.06-.91-2.43v-.33h15.4l.87,4.57-.21.16c-1.89-2.14-4.45-4.4-9-4.4H244.3v12.14l10.38-.9v2.1l-10.38-.87v15.73h3.33a12.48,12.48,0,0,0,9.89-4.85Z"/><path class="cls-1" fill="#231f20" d="M292.8,556.38v.33a5.76,5.76,0,0,0-2.59,4.61V585.2h-.62L270,560.12v20.14a5.78,5.78,0,0,0,2.64,4.65v.29h-5.56v-.29a5.77,5.77,0,0,0,2.63-4.65V559.75l-2.63-3.37h4.16L289.88,580V561.32a5.79,5.79,0,0,0-2.59-4.61v-.33Z"/><path class="cls-1" fill="#231f20" d="M341.88,577.46c0,5.81-6.83,7.74-12.14,7.74H318.41v-.29c.62-.37.91-1,.91-2.43V559.14c0-1.45-.29-2.06-.91-2.43v-.33H328c5.31,0,12.14,1.07,12.14,6.87,0,4.41-4,6.06-8.31,6.59C336.66,570.3,341.88,572.44,341.88,577.46Zm-19.31-7.74H328c6.75,0,8.89-2.84,8.89-6.47s-2.14-6.54-8.89-6.54h-5.4Zm16.1,7.74c0-3.62-2.18-7.41-8.93-7.41h-7.17v14.86h7.17C336.49,584.91,338.67,581.12,338.67,577.46Z"/><path class="cls-1" fill="#231f20" d="M373.5,556.38v.33c-1.89,1.6-2.8,2.47-4.9,6.91L363.33,575v7.53c0,1.45.29,2.06.95,2.43v.29h-5.11v-.29c.62-.37.91-1,.91-2.43V575.4s-6.92-13-7.78-14.66a14.78,14.78,0,0,0-3.59-4v-.33h7.21v.33c-1.07,1.07-1.07,2.8.5,5.72L363,574.82l5.6-11.9c1.73-3.87,1.53-5,0-6.21v-.33Z"/><path class="cls-1" fill="#231f20" d="M424.68,570.79c0,8.15-7,14.41-16.51,14.41H397.88v-.29c.61-.37.9-1,.9-2.43V559.14c0-1.45-.29-2.06-.9-2.43v-.33h10.29C417.72,556.38,424.68,562.68,424.68,570.79Zm-3.25,0c0-7.58-5-14.08-13.26-14.08H402v28.2h6.13C416.41,584.91,421.43,578.41,421.43,570.79Z"/><path class="cls-1" fill="#231f20" d="M451.61,580.22l-.91,5H434v-.29c.62-.37.91-1,.91-2.43V559.14c0-1.45-.29-2.06-.91-2.43v-.33h15.41l.86,4.57-.21.16c-1.89-2.14-4.44-4.4-9-4.4h-2.89v12.14l10.38-.9v2.1l-10.38-.87v15.73h3.34a12.44,12.44,0,0,0,9.88-4.85Z"/><path class="cls-1" fill="#231f20" d="M481.83,559.84l-1.23,4.28h-.29c-2.35-5.52-5.36-7.62-8.61-7.62-4.07,0-6.42,2.31-6.67,4.78-.78,8.23,16.88,5.52,16.88,15.81,0,4.9-4.4,8.36-10.25,8.36-4.9,0-8-1.65-11.16-4.08l1.24-4.69H462c2.1,4.2,5.92,8,11.32,8,3.5,0,6.42-2.27,6.75-4.86,1.07-8.77-16.63-6-16.63-16.31,0-3.34,2.67-7.5,9.3-7.5C475.94,556,479.4,557.94,481.83,559.84Z"/><path class="cls-1" fill="#231f20" d="M495.38,559.14v23.34c0,1.45.29,2.06.94,2.43v.29h-5.1v-.29c.61-.37.9-1,.9-2.43V559.14c0-1.45-.29-2.06-.9-2.43v-.33h5.1v.33C495.67,557.08,495.38,557.69,495.38,559.14Z"/><path class="cls-1" fill="#231f20" d="M534.37,571.49v.33c-.62.37-.9.95-.9,2.43v4.45c-1.12,2.38-5.07,6.75-13.14,6.75a14.72,14.72,0,0,1-14.7-14.74c0-8.16,7.37-14.75,15.52-14.75,4.45,0,7.13,1.16,10.63,3.46l-1.24,4.7h-.29c-3-4.78-7.9-8.32-13.3-7.17-7,1.53-9.59,9.85-7.37,17.13s7.62,11.33,14.95,10.38a9.19,9.19,0,0,0,5.68-3V576c0-2.51-1.15-4.08-3.17-4.2v-.33Z"/><path class="cls-1" fill="#231f20" d="M569.61,556.38v.33a5.79,5.79,0,0,0-2.59,4.61V585.2h-.62l-19.6-25.08v20.14a5.78,5.78,0,0,0,2.64,4.65v.29h-5.56v-.29a5.77,5.77,0,0,0,2.63-4.65V559.75l-2.63-3.37H548L566.69,580V561.32a5.76,5.76,0,0,0-2.59-4.61v-.33Z"/><path class="cls-1" fill="#231f20" d="M97.16,274.66v3c-5.92,3.33-8.51,8.5-8.51,21.82V491.85c0,64-44.39,85.07-81,97.65l-1.11-3.33c32.92-14.8,52.89-33.29,52.89-94.32V303.14c0-14.8-6.66-24.41-20-25.52v-3Z"/><path class="cls-1" fill="#231f20" d="M324.27,531v2.59h-57V531c9.62-9.62,1.85-22.93-12.57-48.46l-39.58-69.16c-5.55.37-11.1.74-16.65.74H164.1v95.06c0,12.94,2.59,18.49,8.14,21.82v2.59H126.75V531c5.55-3.33,8.13-8.88,8.13-21.82V299.44c0-13.32-2.58-18.49-8.13-21.82v-3H198.5c57.34,0,109.12,21.45,109.12,69.91,0,34.77-27.74,55.85-64.73,64.36l33.29,58.44C298,505.47,309.84,518,324.27,531ZM278.4,344.57c0-28.85-9.62-66.95-79.9-66.95H164.1V411.15h34.4C268.41,411.15,278.4,373.05,278.4,344.57Z"/><path class="cls-1" fill="#231f20" d="M588.74,460.34c-20,41.43-55.48,75.46-120.95,75.46-72.87,0-136.12-59.18-136.12-132.42S397.88,271,471.12,271c39.94,0,64,10.36,95.43,31.07l-11.1,42.17h-2.59c-27-42.91-71-74.72-119.47-64.36-63.25,13.68-86.19,88.4-66.21,153.87,20,65.1,73.23,99.13,138.33,89.14,33.29-4.81,61.77-26.63,80.64-63.62Z"/><path class="cls-2" fill="#c6992c" d="M408.6,86.4a63.78,63.78,0,0,1-17.27,66.49A63.83,63.83,0,0,1,297.64,221,63.83,63.83,0,0,1,204,152.9,63.83,63.83,0,0,1,239.74,42.75a63.82,63.82,0,0,1,115.8,0A63.82,63.82,0,0,1,408.6,86.4Zm-27.83,41.94a39.77,39.77,0,0,0,6.51-17.22,22.16,22.16,0,0,1-12.06,9.48q-.35.12-.69.21a22.23,22.23,0,0,1-26.42-12.2,23.68,23.68,0,0,1-.87-2.27,22.71,22.71,0,0,1-.63-2.35,22.22,22.22,0,0,1,14.2-25.4l.69-.24a22.19,22.19,0,0,1,15.31.58,39.68,39.68,0,0,0-39.55-11,39.69,39.69,0,0,0-22.7-34.21,22.08,22.08,0,0,1,5.29,14.38c0,.25,0,.49,0,.73a22.21,22.21,0,0,1-19.77,21.35,22.78,22.78,0,0,1-4.86,0,22.21,22.21,0,0,1-19.77-21.35c0-.24,0-.48,0-.73a22.08,22.08,0,0,1,5.29-14.38A39.69,39.69,0,0,0,258,67.92a39.68,39.68,0,0,0-39.55,11,22.19,22.19,0,0,1,15.31-.58l.68.24a22.2,22.2,0,0,1,14.2,25.4,22.64,22.64,0,0,1-.62,2.35,21.34,21.34,0,0,1-.88,2.27,22.21,22.21,0,0,1-26.41,12.2l-.7-.21a22.14,22.14,0,0,1-12-9.47,39.66,39.66,0,0,0,25.52,32.15,39.71,39.71,0,0,0-1.74,41A22.09,22.09,0,0,1,236,169.56c.14-.2.29-.39.44-.58h0a22.21,22.21,0,0,1,28.54-5.65,19.65,19.65,0,0,1,2,1.32,18.92,18.92,0,0,1,1.89,1.54,22.2,22.2,0,0,1,3.44,28.89c-.13.2-.27.4-.41.59a22.13,22.13,0,0,1-12.74,8.53,39.75,39.75,0,0,0,38.48-14.33,39.75,39.75,0,0,0,38.48,14.33,22.1,22.1,0,0,1-12.74-8.53l-.42-.59a22.21,22.21,0,0,1,3.44-28.89,21.51,21.51,0,0,1,1.89-1.54,23.75,23.75,0,0,1,2-1.32A22.2,22.2,0,0,1,358.87,169h0c.15.19.29.38.43.58a22.1,22.1,0,0,1,4.18,14.75,39.83,39.83,0,0,0,4.86-17.75,39.42,39.42,0,0,0-6.6-23.28A39.38,39.38,0,0,0,380.77,128.34Z"/><path class="cls-3" fill="#771114" d="M297.64,94.94a24.36,24.36,0,1,1-24.36,24.36A24.36,24.36,0,0,1,297.64,94.94Z"/></svg>